<svg xmlns="http://www.w3.org/2000/svg" viewBox="0 0 440.79 202.46"><defs><style>.cls-1{fill:#878787;}.cls-2{fill:#10cfc9;}</style></defs><g id="Layer_2" data-name="Layer 2"><g id="Layer_1-2" data-name="Layer 1"><path class="cls-1" d="M0,128.24H6.47v29.44H0Zm.45-7.83H6v4.78H.45Z"/><path class="cls-1" d="M16.29,150.43a4.81,4.81,0,0,0,1.42,1.67,6.2,6.2,0,0,0,2.08,1,10.21,10.21,0,0,0,2.48.31,12.32,12.32,0,0,0,1.85-.15,6.17,6.17,0,0,0,1.86-.56,3.92,3.92,0,0,0,1.44-1.13,2.81,2.81,0,0,0,.58-1.83,2.57,2.57,0,0,0-.76-1.94,6,6,0,0,0-2-1.24,20.37,20.37,0,0,0-2.81-.87c-1-.24-2.1-.52-3.17-.82a29.35,29.35,0,0,1-3.22-1,10.84,10.84,0,0,1-2.8-1.55,6.92,6.92,0,0,1-2.76-5.81,7.77,7.77,0,0,1,1-3.94A8.78,8.78,0,0,1,14,129.73a10.71,10.71,0,0,1,3.55-1.65,15,15,0,0,1,3.95-.54,18.49,18.49,0,0,1,4.44.52,11,11,0,0,1,3.77,1.67,8.46,8.46,0,0,1,2.62,3,9,9,0,0,1,1,4.35H27a5.11,5.11,0,0,0-.56-2.19,3.57,3.57,0,0,0-1.25-1.36,5.41,5.41,0,0,0-1.8-.7,10.81,10.81,0,0,0-2.2-.21,7.55,7.55,0,0,0-1.57.17,4.24,4.24,0,0,0-1.42.57,3.56,3.56,0,0,0-1.05,1,2.76,2.76,0,0,0-.42,1.57,2.61,2.61,0,0,0,.33,1.4,3,3,0,0,0,1.3,1,15.78,15.78,0,0,0,2.68.91c1.14.3,2.63.69,4.48,1.15.55.12,1.31.31,2.29.6a10.82,10.82,0,0,1,2.9,1.39,8.62,8.62,0,0,1,2.5,2.53,7.22,7.22,0,0,1,1.05,4.06,9.07,9.07,0,0,1-.78,3.76,8.3,8.3,0,0,1-2.33,3,11.28,11.28,0,0,1-3.84,1.95,18,18,0,0,1-5.3.71,18.56,18.56,0,0,1-4.72-.6,11.92,11.92,0,0,1-4-1.88,9.15,9.15,0,0,1-2.78-3.26,9.76,9.76,0,0,1-1-4.7h6.27a5.39,5.39,0,0,0,.54,2.52"/><polygon class="cls-1" points="34.97 133.68 34.97 128.24 59.09 128.24 59.09 133.68 50.27 133.68 50.27 157.69 43.79 157.69 43.79 133.68 34.97 133.68"/><path class="cls-1" d="M72.54,128.24l11,29.45H76.83l-2.23-6.56h-11l-2.31,6.56H54.76L65.9,128.24Zm.37,18.06L69.2,135.5h-.09l-3.83,10.8Z"/><polygon class="cls-1" points="91.71 128.24 104 147.99 104.08 147.99 104.08 128.24 110.15 128.24 110.15 157.69 103.67 157.69 91.42 137.97 91.34 137.97 91.34 157.69 85.28 157.69 85.28 128.24 91.71 128.24"/><path class="cls-1" d="M128.87,128.24a18.1,18.1,0,0,1,3.83.37,8.32,8.32,0,0,1,3,1.22,5.54,5.54,0,0,1,1.92,2.25,7.93,7.93,0,0,1,.68,3.46,6.48,6.48,0,0,1-1,3.71,7.29,7.29,0,0,1-3,2.43,7.07,7.07,0,0,1,4.06,2.75,8.1,8.1,0,0,1,1.34,4.72,8.23,8.23,0,0,1-.86,3.86,7.56,7.56,0,0,1-2.33,2.65,10.31,10.31,0,0,1-3.34,1.53,15.07,15.07,0,0,1-3.86.49H115V128.24ZM128,140.16a4.65,4.65,0,0,0,2.85-.83,3.12,3.12,0,0,0,1.11-2.68,3.41,3.41,0,0,0-.37-1.69,2.8,2.8,0,0,0-1-1,3.93,3.93,0,0,0-1.42-.51,9.1,9.1,0,0,0-1.67-.15h-6.06v6.89Zm.38,12.49a8.89,8.89,0,0,0,1.81-.18,4.64,4.64,0,0,0,1.53-.62,3.17,3.17,0,0,0,1.05-1.18,4,4,0,0,0,.39-1.89,3.83,3.83,0,0,0-1.28-3.24,5.43,5.43,0,0,0-3.38-1h-7v8.08Z"/><path class="cls-1" d="M164.87,155.44q-3.35,2.91-9.24,2.91t-9.26-2.89c-2.18-1.92-3.27-4.9-3.27-8.91V128.24h6.47v18.31a13.08,13.08,0,0,0,.21,2.35,4.56,4.56,0,0,0,2.7,3.49,7.45,7.45,0,0,0,3.15.55q3.47,0,4.79-1.54a7.38,7.38,0,0,0,1.32-4.85V128.24h6.47v18.31q0,6-3.34,8.89"/><polygon class="cls-1" points="179.43 128.24 179.43 152.24 193.78 152.24 193.78 157.69 172.95 157.69 172.95 128.24 179.43 128.24"/><polygon class="cls-1" points="216.33 128.24 223.22 148.49 223.3 148.49 229.82 128.24 238.93 128.24 238.93 157.69 232.87 157.69 232.87 136.82 232.79 136.82 225.57 157.69 220.58 157.69 213.37 137.03 213.28 137.03 213.28 157.69 207.22 157.69 207.22 128.24 216.33 128.24"/><polygon class="cls-1" points="265.82 128.24 265.82 133.68 250.27 133.68 250.27 139.99 264.54 139.99 264.54 145.03 250.27 145.03 250.27 152.24 266.15 152.24 266.15 157.69 243.8 157.69 243.8 128.24 265.82 128.24"/><path class="cls-1" d="M282.4,128.24a15.09,15.09,0,0,1,5.3.91,11.52,11.52,0,0,1,4.25,2.72,12.7,12.7,0,0,1,2.8,4.54,18.39,18.39,0,0,1,1,6.39,20.8,20.8,0,0,1-.82,5.94,13.33,13.33,0,0,1-2.5,4.7,11.65,11.65,0,0,1-4.17,3.11,14,14,0,0,1-5.87,1.13H269.7V128.24Zm-.46,24a8.45,8.45,0,0,0,2.73-.45,6.07,6.07,0,0,0,2.35-1.51,7.73,7.73,0,0,0,1.65-2.74,12.08,12.08,0,0,0,.62-4.12,17,17,0,0,0-.44-4,8.1,8.1,0,0,0-1.42-3.08,6.37,6.37,0,0,0-2.62-2,10.55,10.55,0,0,0-4-.68h-4.62v18.56Z"/><polygon class="cls-1" points="321.45 128.24 321.45 133.68 305.9 133.68 305.9 139.99 320.17 139.99 320.17 145.03 305.9 145.03 305.9 152.24 321.78 152.24 321.78 157.69 299.43 157.69 299.43 128.24 321.45 128.24"/><polygon class="cls-1" points="331.76 128.24 344.05 147.99 344.13 147.99 344.13 128.24 350.19 128.24 350.19 157.69 343.72 157.69 331.47 137.97 331.39 137.97 331.39 157.69 325.33 157.69 325.33 128.24 331.76 128.24"/><path class="cls-1" d="M355.06,128.24h6.48v29.44h-6.48Zm.46-7.83h5.56v4.78h-5.56Z"/><polygon class="cls-1" points="363.22 128.24 370.48 128.24 377.37 139.87 384.21 128.24 391.43 128.24 380.5 146.39 380.5 157.69 374.03 157.69 374.03 146.22 363.22 128.24"/><polygon class="cls-1" points="415.1 128.24 415.1 133.68 399.56 133.68 399.56 139.99 413.83 139.99 413.83 145.03 399.56 145.03 399.56 152.24 415.43 152.24 415.43 157.69 393.08 157.69 393.08 128.24 415.1 128.24"/><polygon class="cls-1" points="416.67 133.68 416.67 128.24 440.79 128.24 440.79 133.68 431.97 133.68 431.97 157.69 425.49 157.69 425.49 133.68 416.67 133.68"/><path class="cls-1" d="M105.51,199.56q-3.35,2.9-9.24,2.9T87,199.58q-3.27-2.9-3.28-8.91V172.36h6.48v18.31a14.06,14.06,0,0,0,.2,2.35,4.79,4.79,0,0,0,.87,2,4.86,4.86,0,0,0,1.84,1.45,7.61,7.61,0,0,0,3.15.55c2.31,0,3.9-.51,4.78-1.55a7.35,7.35,0,0,0,1.32-4.84V172.36h6.48v18.31q0,6-3.34,8.89m-10.68-30.5H89.26v-4.82h5.57Zm8.49,0H97.76v-4.82h5.56Z"/><polygon class="cls-1" points="120.02 172.36 132.31 192.11 132.4 192.11 132.4 172.36 138.46 172.36 138.46 201.8 131.98 201.8 119.73 182.09 119.65 182.09 119.65 201.8 113.59 201.8 113.59 172.36 120.02 172.36"/><path class="cls-1" d="M143.32,172.36h6.48V201.8h-6.48Zm.46-7.84h5.56v4.79h-5.56Z"/><polygon class="cls-1" points="161.06 201.8 151.53 172.36 158.17 172.36 164.73 193.06 164.81 193.06 171.45 172.36 178.13 172.36 168.35 201.8 161.06 201.8"/><polygon class="cls-1" points="201.84 172.36 201.84 177.8 186.29 177.8 186.29 184.11 200.56 184.11 200.56 189.14 186.29 189.14 186.29 196.36 202.17 196.36 202.17 201.8 179.82 201.8 179.82 172.36 201.84 172.36"/><path class="cls-1" d="M221.59,172.36a9.42,9.42,0,0,1,3.57.64,8.22,8.22,0,0,1,2.72,1.75,7.38,7.38,0,0,1,1.73,2.58,8.25,8.25,0,0,1,.6,3.15,8.85,8.85,0,0,1-1.09,4.5,6.9,6.9,0,0,1-3.57,2.89V188a4.88,4.88,0,0,1,2,1,5.59,5.59,0,0,1,1.28,1.61,7.48,7.48,0,0,1,.72,2,16.93,16.93,0,0,1,.31,2.22c0,.47.06,1,.08,1.65s.08,1.28.15,1.94a13.37,13.37,0,0,0,.33,1.88,4.32,4.32,0,0,0,.68,1.5H224.6a11.83,11.83,0,0,1-.66-3.34c-.08-1.29-.2-2.53-.37-3.71a5.82,5.82,0,0,0-1.4-3.38,4.83,4.83,0,0,0-3.51-1.07h-6.47v11.5h-6.47V172.36Zm-2.31,13.32a4.88,4.88,0,0,0,3.34-1,4.08,4.08,0,0,0,1.12-3.22,3.9,3.9,0,0,0-1.12-3.11,4.93,4.93,0,0,0-3.34-1h-7.09v8.29Z"/><path class="cls-1" d="M239.61,194.54a4.68,4.68,0,0,0,1.43,1.68,6.1,6.1,0,0,0,2.08.94,9.67,9.67,0,0,0,2.47.31,12.38,12.38,0,0,0,1.86-.14,6.31,6.31,0,0,0,1.85-.56,4,4,0,0,0,1.45-1.13,2.89,2.89,0,0,0,.57-1.84,2.6,2.6,0,0,0-.76-1.94,6.08,6.08,0,0,0-2-1.23,20.21,20.21,0,0,0-2.8-.87c-1-.24-2.11-.52-3.18-.82a28.52,28.52,0,0,1-3.21-1,11.21,11.21,0,0,1-2.81-1.55,7.31,7.31,0,0,1-2-2.37,7.19,7.19,0,0,1-.76-3.44,7.65,7.65,0,0,1,1-3.94,8.64,8.64,0,0,1,2.53-2.78,11,11,0,0,1,3.55-1.66,15.4,15.4,0,0,1,4-.53,18.86,18.86,0,0,1,4.43.51,10.87,10.87,0,0,1,3.77,1.68,8.33,8.33,0,0,1,2.62,2.94,9,9,0,0,1,1,4.35h-6.26a5.16,5.16,0,0,0-.56-2.18,3.68,3.68,0,0,0-1.26-1.36,5.15,5.15,0,0,0-1.79-.7,10.91,10.91,0,0,0-2.21-.21,6.84,6.84,0,0,0-1.56.17,4.09,4.09,0,0,0-1.43.57,3.68,3.68,0,0,0-1.05,1,2.74,2.74,0,0,0-.41,1.57,2.64,2.64,0,0,0,.33,1.4,2.89,2.89,0,0,0,1.3,1,16,16,0,0,0,2.68.91c1.14.3,2.63.69,4.47,1.15.55.11,1.31.31,2.29.6a11.15,11.15,0,0,1,2.91,1.38,8.88,8.88,0,0,1,2.49,2.54,7.22,7.22,0,0,1,1,4.06,9,9,0,0,1-.78,3.75,8,8,0,0,1-2.33,3,11.21,11.21,0,0,1-3.84,2,18,18,0,0,1-5.29.7,18.58,18.58,0,0,1-4.73-.6,11.8,11.8,0,0,1-4-1.87,9.25,9.25,0,0,1-2.78-3.26,9.65,9.65,0,0,1-1-4.7h6.27a5.45,5.45,0,0,0,.53,2.51"/><path class="cls-1" d="M260.6,172.36h6.48V201.8H260.6Zm.46-7.84h5.56v4.79h-5.56Z"/><polygon class="cls-1" points="269.63 177.8 269.63 172.36 293.76 172.36 293.76 177.8 284.93 177.8 284.93 201.8 278.46 201.8 278.46 177.8 269.63 177.8"/><polygon class="cls-1" points="318.33 172.36 318.33 177.8 302.79 177.8 302.79 184.11 317.06 184.11 317.06 189.14 302.79 189.14 302.79 196.36 318.67 196.36 318.67 201.8 296.31 201.8 296.31 172.36 318.33 172.36"/><path class="cls-1" d="M327.16,194.54a4.76,4.76,0,0,0,1.42,1.68,6.15,6.15,0,0,0,2.09.94,9.61,9.61,0,0,0,2.47.31,12.38,12.38,0,0,0,1.86-.14,6.41,6.41,0,0,0,1.85-.56,4,4,0,0,0,1.45-1.13,2.89,2.89,0,0,0,.57-1.84,2.6,2.6,0,0,0-.76-1.94,6.08,6.08,0,0,0-2-1.23,20.21,20.21,0,0,0-2.8-.87c-1.05-.24-2.11-.52-3.18-.82a29.35,29.35,0,0,1-3.22-1,11.15,11.15,0,0,1-2.8-1.55,6.92,6.92,0,0,1-2.76-5.81,7.65,7.65,0,0,1,1-3.94,8.64,8.64,0,0,1,2.53-2.78,11,11,0,0,1,3.55-1.66,15.4,15.4,0,0,1,4-.53,18.92,18.92,0,0,1,4.43.51,11,11,0,0,1,3.77,1.68,8.43,8.43,0,0,1,2.62,2.94,9,9,0,0,1,1,4.35h-6.27a5.17,5.17,0,0,0-.55-2.18,3.68,3.68,0,0,0-1.26-1.36,5.13,5.13,0,0,0-1.8-.7,10.74,10.74,0,0,0-2.2-.21,7,7,0,0,0-1.57.17,4,4,0,0,0-1.42.57,3.56,3.56,0,0,0-1.05,1,2.74,2.74,0,0,0-.42,1.57,2.64,2.64,0,0,0,.33,1.4,3,3,0,0,0,1.3,1,16.72,16.72,0,0,0,2.68.91c1.14.3,2.64.69,4.48,1.15.55.11,1.31.31,2.29.6a11.09,11.09,0,0,1,2.9,1.38,8.78,8.78,0,0,1,2.5,2.54,7.22,7.22,0,0,1,1.05,4.06,9,9,0,0,1-.78,3.75,8,8,0,0,1-2.33,3,11.21,11.21,0,0,1-3.84,2,18,18,0,0,1-5.3.7,18.56,18.56,0,0,1-4.72-.6,11.8,11.8,0,0,1-4-1.87,9.15,9.15,0,0,1-2.78-3.26,9.65,9.65,0,0,1-1-4.7h6.27a5.32,5.32,0,0,0,.53,2.51"/><path class="cls-1" d="M348.15,172.36h6.48V201.8h-6.48Zm.46-7.84h5.56v4.79h-5.56Z"/><path class="cls-2" d="M152.63,113.5H137.89V56.82h14.74Zm147.42,0H255.81V26.58h14.74V98.77h14.77V56.82h14.73ZM196.85,0h44.22V113.5H226.34V14.74H211.59V113.5H196.85V44.9H182.11v68.6H167.37V30.16h29.48Z"/></g></g></svg>