<?xml version="1.0" encoding="UTF-8" standalone="no"?>
<svg
   xmlns:dc="http://purl.org/dc/elements/1.1/"
   xmlns:cc="http://creativecommons.org/ns#"
   xmlns:rdf="http://www.w3.org/1999/02/22-rdf-syntax-ns#"
   xmlns:svg="http://www.w3.org/2000/svg"
   xmlns="http://www.w3.org/2000/svg"
   xmlns:sodipodi="http://sodipodi.sourceforge.net/DTD/sodipodi-0.dtd"
   xmlns:inkscape="http://www.inkscape.org/namespaces/inkscape"
   version="1.1"
   id="svg2"
   xml:space="preserve"
   width="200"
   height="80"
   viewBox="0 0 200 80"
   sodipodi:docname="Ashan_Logo_S_001.ai"><metadata
     id="metadata8"><rdf:RDF><cc:Work
         rdf:about=""><dc:format>image/svg+xml</dc:format><dc:type
           rdf:resource="http://purl.org/dc/dcmitype/StillImage" /></cc:Work></rdf:RDF></metadata><defs
     id="defs6"><clipPath
       clipPathUnits="userSpaceOnUse"
       id="clipPath18"><path
         d="M 0,60 H 150 V 0 H 0 Z"
         id="path16" /></clipPath></defs><sodipodi:namedview
     pagecolor="#ffffff"
     bordercolor="#666666"
     borderopacity="1"
     objecttolerance="10"
     gridtolerance="10"
     guidetolerance="10"
     inkscape:pageopacity="0"
     inkscape:pageshadow="2"
     inkscape:window-width="640"
     inkscape:window-height="480"
     id="namedview4" /><g
     id="g10"
     inkscape:groupmode="layer"
     inkscape:label="Ashan_Logo_S_001"
     transform="matrix(1.3333333,0,0,-1.3333333,0,80)"><g
       id="g12"><g
         id="g14"
         clip-path="url(#clipPath18)"><g
           id="g20"
           transform="translate(149.6613,19.5242)"><path
             d="M 0,0 C -0.774,0 -1.355,-0.048 -1.548,-0.048 -1.742,-0.048 -2.613,0 -3.436,0 c -0.193,0 -0.338,-0.048 -0.338,-0.145 0,-0.097 0,-0.145 0.145,-0.145 0.145,0 0.581,0 0.919,-0.097 0.581,-0.145 0.726,-0.532 0.726,-1.742 l 0.194,-9.29 c -0.581,0.58 -2.613,2.806 -4.404,4.742 -2.806,3.048 -5.516,5.951 -5.806,6.29 -0.194,0.193 -0.484,0.581 -0.629,0.581 -0.145,0 -0.194,-0.194 -0.194,-0.92 v -10.451 c 0,-1.646 -0.096,-2.178 -0.532,-2.323 -0.29,-0.097 -0.629,-0.097 -0.774,-0.097 -0.097,0 -0.145,0 -0.145,-0.097 0,-0.145 0.097,-0.145 0.29,-0.145 0.823,0 1.597,0.049 1.742,0.049 0.145,0 0.919,-0.049 1.936,-0.049 0.241,0 0.338,0.049 0.338,0.145 0,0.049 -0.048,0.097 -0.145,0.097 -0.145,0 -0.581,0 -0.919,0.097 -0.484,0.145 -0.678,0.629 -0.726,2.129 L -12,-2.661 c 0.581,-0.629 2.613,-2.952 4.742,-5.226 1.935,-2.081 4.548,-4.742 4.742,-4.936 1.016,-0.967 1.21,-1.161 1.355,-1.161 0.096,0 0.145,0.097 0.145,1.307 l 0.048,10.693 c 0,1.113 0.097,1.5 0.678,1.645 0.193,0.049 0.338,0.049 0.435,0.049 0.097,0 0.194,0.048 0.194,0.145 C 0.339,0 0.194,0 0,0 m -39.435,-7.694 -1.742,4.936 c -0.097,0.29 -0.194,0.29 -0.291,0 l -1.597,-4.936 c -0.048,-0.096 0,-0.145 0.049,-0.145 h 3.484 c 0.097,0 0.097,0.049 0.097,0.145 m 5.564,-6.048 c 0,-0.097 -0.145,-0.145 -0.339,-0.145 -0.29,0 -1.596,0 -2.854,0.048 -0.339,0 -0.533,0 -0.533,0.145 0,0.097 0.049,0.097 0.145,0.146 0.097,0.048 0.242,0.193 0.097,0.483 l -1.742,4.501 c -0.048,0.096 -0.097,0.096 -0.145,0.096 h -3.919 c -0.097,0 -0.145,-0.048 -0.194,-0.145 l -1.113,-3.242 c -0.145,-0.435 -0.242,-0.919 -0.242,-1.21 0,-0.338 0.387,-0.532 0.678,-0.532 h 0.193 c 0.145,0 0.194,-0.048 0.194,-0.097 0,-0.096 -0.097,-0.145 -0.291,-0.145 -0.435,0 -1.209,0.049 -1.451,0.049 -0.194,0 -1.21,-0.049 -2.081,-0.049 -0.242,0 -0.338,0.049 -0.338,0.145 0,0.097 0.096,0.097 0.145,0.097 0.145,0 0.387,0 0.532,0.049 0.823,0.096 1.21,0.774 1.548,1.693 l 4.162,11.323 c 0.242,0.58 0.29,0.726 0.387,0.726 0.097,0 0.193,-0.097 0.387,-0.678 0.29,-0.677 3.145,-8.226 4.258,-11.032 0.677,-1.645 1.21,-1.936 1.597,-2.032 0.29,-0.097 0.532,-0.097 0.726,-0.097 0.096,0 0.193,0 0.193,-0.097 m -33.677,0.097 c -0.146,0 -0.581,0.048 -0.823,0.097 -0.581,0.096 -0.677,0.483 -0.726,1.016 -0.097,0.774 -0.097,2.226 -0.097,3.967 l 0.097,3.194 c 0,2.806 0,3.339 0.049,3.919 0.048,0.629 0.193,0.92 0.677,1.017 0.194,0.048 0.29,0.048 0.436,0.048 0.048,0 0.145,0 0.145,0.097 0,0.096 -0.097,0.145 -0.291,0.145 -0.532,0 -1.693,-0.049 -1.79,-0.049 -0.097,0 -1.258,0.049 -2.081,0.049 -0.193,0 -0.29,-0.049 -0.29,-0.145 0,-0.049 0.048,-0.097 0.145,-0.097 0.194,0 0.484,0 0.629,-0.048 0.581,-0.097 0.726,-0.388 0.774,-1.017 0.049,-0.532 0.049,-1.064 0.049,-3.919 v -0.387 c 0,-0.097 -0.049,-0.097 -0.097,-0.097 h -7.742 c -0.048,0 -0.097,0 -0.097,0.097 v 0.387 c 0,2.806 0,3.339 0.049,3.919 0.048,0.629 0.193,0.92 0.677,1.017 0.194,0.048 0.29,0.048 0.436,0.048 0.048,0 0.145,0 0.145,0.097 0,0.096 -0.097,0.145 -0.291,0.145 -0.532,0 -1.693,-0.049 -1.79,-0.049 -0.097,0 -1.258,0.049 -2.081,0.049 -0.193,0 -0.29,-0.049 -0.29,-0.145 0,-0.049 0.049,-0.097 0.145,-0.097 0.194,0 0.484,0 0.629,-0.048 0.581,-0.097 0.726,-0.388 0.775,-1.017 0.048,-0.532 0.048,-1.064 0.048,-3.919 v -3.194 c 0,-1.741 0,-3.193 -0.097,-3.967 -0.097,-0.533 -0.193,-0.92 -0.532,-1.016 -0.145,-0.049 -0.387,-0.097 -0.532,-0.097 -0.097,0 -0.146,-0.049 -0.146,-0.097 0,-0.097 0.097,-0.145 0.291,-0.145 0.532,0 1.693,0.048 1.79,0.048 0.097,0 1.21,-0.048 2.226,-0.048 0.194,0 0.29,0.048 0.29,0.145 0,0.048 -0.048,0.097 -0.145,0.097 -0.145,0 -0.581,0.048 -0.822,0.097 -0.581,0.096 -0.678,0.483 -0.726,1.016 -0.097,0.774 -0.097,2.226 -0.097,3.967 v 1.936 c 0,0.097 0.048,0.097 0.097,0.097 h 7.742 c 0.048,0 0.096,0 0.096,-0.097 v -1.936 c 0,-1.741 0,-3.193 -0.096,-3.967 -0.097,-0.533 -0.194,-0.92 -0.533,-1.016 -0.145,-0.049 -0.387,-0.097 -0.532,-0.097 -0.097,0 -0.145,-0.049 -0.145,-0.097 0,-0.097 0.097,-0.145 0.29,-0.145 0.533,0 1.694,0.048 1.791,0.048 0.096,0 1.209,-0.048 2.225,-0.048 0.194,0 0.291,0.048 0.291,0.145 0,0.048 -0.049,0.097 -0.145,0.097 m -40.355,7.597 -0.532,0.387 c -1.742,1.355 -2.226,2.032 -2.226,3.048 0,1.355 0.967,2.129 2.226,2.129 1.693,0 2.177,-0.774 2.274,-0.968 0.096,-0.193 0.242,-0.677 0.242,-0.919 0,-0.145 0.048,-0.242 0.145,-0.242 0.097,0 0.145,0.145 0.145,0.436 0,1.258 0.097,1.838 0.097,1.935 0,0.097 -0.049,0.145 -0.194,0.145 -0.145,0 -0.29,0 -0.629,0.097 -0.435,0.097 -0.968,0.194 -1.693,0.194 -2.323,0 -3.775,-1.355 -3.775,-3.291 0,-1.258 0.436,-2.371 2.371,-3.968 l 0.726,-0.774 c 1.549,-1.306 2.081,-2.032 2.081,-3.29 0,-1.161 -0.871,-2.419 -2.613,-2.419 -1.258,0 -2.419,0.532 -2.71,1.887 -0.048,0.242 -0.048,0.532 -0.048,0.677 0,0.145 -0.048,0.194 -0.145,0.194 -0.097,0 -0.145,-0.097 -0.145,-0.291 0,-0.29 -0.097,-1.016 -0.097,-1.935 0,-0.484 0.048,-0.532 0.29,-0.678 0.774,-0.338 1.597,-0.483 2.468,-0.483 h 0.339 c 0.096,0 0.241,0.048 0.338,0.048 l -1.064,-0.919 c -0.145,-0.097 -0.242,-0.194 -0.242,-0.242 0,-0.049 0.097,-0.097 0.29,-0.145 1.065,-0.339 1.307,-0.823 1.307,-1.355 0,-0.678 -0.726,-1.016 -1.355,-1.113 -0.194,0 -0.339,-0.049 -0.339,-0.194 0,-0.097 0.097,-0.145 0.242,-0.145 0.387,0 0.968,0.097 1.452,0.339 0.629,0.242 1.306,0.774 1.306,1.5 0,0.774 -0.726,1.209 -1.839,1.306 0.194,0.145 1.065,1.016 1.307,1.162 0.387,0.145 0.774,0.29 1.113,0.532 1.258,0.919 1.548,2.274 1.548,3.048 0,1.5 -0.532,2.613 -2.661,4.307 m -33.339,-1.646 -1.742,4.936 c -0.097,0.29 -0.193,0.29 -0.29,0 l -1.597,-4.936 c -0.048,-0.096 0,-0.145 0.048,-0.145 h 3.484 c 0.097,0 0.097,0.049 0.097,0.145 m 5.565,-6.048 c 0,-0.097 -0.146,-0.145 -0.339,-0.145 -0.29,0 -1.597,0 -2.855,0.048 -0.339,0 -0.532,0 -0.532,0.145 0,0.097 0.048,0.097 0.145,0.146 0.097,0.048 0.242,0.193 0.097,0.483 l -1.742,4.452 c -0.049,0.097 -0.097,0.097 -0.145,0.097 h -3.968 c -0.097,0 -0.145,-0.049 -0.194,-0.145 l -1.113,-3.194 c -0.145,-0.435 -0.242,-0.919 -0.242,-1.21 0,-0.338 0.388,-0.532 0.678,-0.532 h 0.193 c 0.146,0 0.194,-0.048 0.194,-0.097 0,-0.096 -0.097,-0.145 -0.29,-0.145 -0.436,0 -1.21,0.049 -1.452,0.049 -0.193,0 -1.21,-0.049 -2.081,-0.049 -0.242,0 -0.338,0.049 -0.338,0.145 0,0.097 0.096,0.097 0.145,0.097 0.145,0 0.387,0 0.532,0.049 0.823,0.096 1.21,0.774 1.549,1.693 l 4.209,11.323 c 0.242,0.58 0.29,0.726 0.387,0.726 0.097,0 0.194,-0.097 0.387,-0.678 0.291,-0.677 3.146,-8.226 4.258,-11.032 0.678,-1.645 1.21,-1.936 1.597,-2.032 0.291,-0.097 0.532,-0.097 0.726,-0.097 0.097,0 0.194,0 0.194,-0.097 m 65.564,36.436 -3.822,2.177 6.822,-8.177 -6,4.935 -1.5,-12.435 -1.5,10.5 2.178,3.822 -8.178,-6.822 4.936,6 -12.436,1.5 10.5,1.5 3.823,-2.178 -6.823,8.178 6,-4.936 1.5,12.436 1.5,-10.5 -2.177,-3.823 8.177,6.823 -4.935,-6 12.435,-1.5 z"
             style="fill:#bd9a5f;fill-opacity:1;fill-rule:nonzero;stroke:none"
             id="path22" /></g></g></g></g></svg>
