<svg xmlns="http://www.w3.org/2000/svg" viewBox="0 0 627.51 1002.08"><defs><style>.cls-1{fill:#fff;}.cls-2{fill:#a7a9ab;}.cls-3{fill:#005687;}.cls-4{fill:#636467;}</style></defs><g id="Layer_2" data-name="Layer 2"><g id="Layer_1-2" data-name="Layer 1"><rect class="cls-1" width="625.61" height="627.74"/><path class="cls-2" d="M598.63,27.13v228.8c-97.62,149.67-348,200.78-352,201.58,64.87-24.55,224.22-117.25,217-230.29-8.18-127.9-210.4-200.09-210.4-200.09Z"/><path class="cls-3" d="M0,627.74H625.61V0H0Zm598.6-27.12H317.29c-.12,0-123.31-36.4-176-113.65C59.16,350.14,287.68,255.72,290.72,254.47,81.18,305.84,27,395.77,27,395.77V27.14H598.6Z"/><polygon class="cls-4" points="84.4 859.25 68.68 859.25 68.68 902.32 62.42 902.32 62.42 859.25 46.83 859.25 46.83 853.68 84.4 853.68 84.4 859.25"/><path class="cls-4" d="M110.28,881.75v20.57h-6.2v-5.69c-2.11,3.89-6.94,6.46-11.76,6.46-7.78,0-12.93-4.45-12.93-11s5.27-10.84,13.14-10.84A24,24,0,0,1,104,884.28v-2.86c0-5.57-3.7-9.26-9.33-9.26a18.61,18.61,0,0,0-10.56,3.61l-2.23-4.51c2.83-2.7,8.23-4.58,13.46-4.58,9,0,14.92,6,14.92,15.07M85.61,891.92c0,3.53,3.28,6,8.16,6a13,13,0,0,0,10.37-6v-3.56a23.08,23.08,0,0,0-10.43-2.62c-4.88,0-8.1,2.48-8.1,6.26"/><path class="cls-4" d="M141.32,869.59l-2.19,4.74a20.57,20.57,0,0,0-8.9-2.31c-3.84,0-6.82,1.72-6.82,4.8,0,2.14,1.68,3.54,4.71,4.44l4.69,1.47c5.28,1.6,9,4.52,9,10.21,0,6-4.87,10.15-12.67,10.15a27.14,27.14,0,0,1-13.66-3.74l2.38-4.82a21.63,21.63,0,0,0,11,3.21c4.69,0,7-2.3,7-4.72,0-2.58-2.45-4-5.41-4.95l-4.49-1.39c-5.34-1.65-8.45-4.85-8.45-9.86,0-6.13,4.82-10.14,12.28-10.14a27.22,27.22,0,0,1,11.62,2.91"/><path class="cls-4" d="M176.12,881.75v20.57h-6.19v-5.69c-2.13,3.89-7,6.46-11.77,6.46-7.78,0-12.95-4.45-12.95-11s5.29-10.84,13.14-10.84a23.84,23.84,0,0,1,11.48,3.07v-2.86c0-5.57-3.69-9.26-9.28-9.26A18.51,18.51,0,0,0,150,875.77l-2.25-4.51c2.82-2.7,8.25-4.58,13.48-4.58,9,0,14.91,6,14.91,15.07m-24.7,10.17c0,3.53,3.31,6,8.2,6a13,13,0,0,0,10.37-6v-3.56a23.21,23.21,0,0,0-10.43-2.62c-4.9,0-8.14,2.48-8.14,6.26"/><path class="cls-4" d="M202.54,866.81v6.34a13.47,13.47,0,0,0-2.72-.28c-5.41,0-9,6.38-9,15.89v13.56h-6.12V867.43h6.06v8.62c1.18-5.62,5.08-9.37,9.7-9.37,0,0,.86,0,2.12.13"/><path class="cls-4" d="M225,866.81v6.34a13,13,0,0,0-2.68-.28c-5.43,0-9.07,6.38-9.07,15.89v13.56h-6.13V867.43h6.07v8.62c1.19-5.62,5.09-9.37,9.71-9.37,0,0,.86,0,2.1.13"/><path class="cls-4" d="M259.59,902.32h-6.13v-7a11.56,11.56,0,0,1-11.29,7.72c-7.2,0-13-4.59-13-15.71V867.45h6.14v19.8c0,7.85,3.91,10.29,7.85,10.29,3.45,0,10.11-2.51,10.26-12.71V867.45h6.13Z"/><path class="cls-4" d="M292.14,854.37,289.91,859a14.85,14.85,0,0,0-6.34-2.15c-4.05,0-6.73,2.78-6.73,6.93v3.78h9.89v4.94H276.9v29.8h-6.16v-29.8h-5.27v-4.94h5.27v-4.74c0-6.88,4.83-11.45,12-11.45a19.57,19.57,0,0,1,9.44,3"/><polygon class="cls-4" points="358.78 902.32 352.37 902.32 349.2 864.09 333.95 901.71 329.21 901.71 313.94 864.09 310.76 902.32 304.36 902.32 308.65 853.67 315.65 853.67 331.56 892.8 347.48 853.67 354.48 853.67 358.78 902.32"/><path class="cls-4" d="M396.89,883a15.15,15.15,0,0,1-.21,2.91H370.13c.34,7.23,4.77,11.67,11.89,11.67,3.38,0,7.21-1,9.18-2.43l2.65,4.24a21,21,0,0,1-12,3.68c-10.88,0-17.75-7.28-17.75-18.26,0-10.78,6.81-18.14,17-18.14,9.52,0,15.86,6.39,15.86,16.33m-26.55-1.46h20.6c-.2-5.79-4.22-9.53-9.85-9.53s-9.84,3.83-10.75,9.53"/><polygon class="cls-4" points="417.5 902.32 410.94 902.32 397.6 867.45 404.16 867.45 414.11 895.67 424.22 867.45 430.76 867.45 417.5 902.32"/><path class="cls-4" d="M467.55,902.32h-6.2V895.8a14.74,14.74,0,0,1-12.62,7.29c-9.84,0-16.38-7.29-16.38-18.2s6.54-18.22,16.38-18.22A14.79,14.79,0,0,1,461.35,874V852.07h6.2Zm-29.07-17.43c0,7.66,4.51,12.65,11.18,12.65,7.06,0,11.81-5,11.81-12.65s-4.75-12.65-11.81-12.65c-6.67,0-11.18,5-11.18,12.65"/><path class="cls-4" d="M506.45,902.32H500.3v-7A11.53,11.53,0,0,1,489,903.09c-7.18,0-12.94-4.59-12.94-15.71V867.45h6.13v19.8c0,7.85,3.9,10.29,7.86,10.29,3.44,0,10.11-2.51,10.24-12.71V867.45h6.15Z"/><path class="cls-4" d="M543.29,881.75v20.57h-6.21v-5.69c-2.11,3.89-6.93,6.46-11.75,6.46-7.79,0-13-4.45-13-11s5.29-10.84,13.16-10.84A24,24,0,0,1,537,884.28v-2.86c0-5.57-3.71-9.26-9.33-9.26a18.61,18.61,0,0,0-10.57,3.61l-2.23-4.51c2.84-2.7,8.25-4.58,13.46-4.58,9,0,14.93,6,14.93,15.07m-24.68,10.17c0,3.53,3.28,6,8.16,6a13,13,0,0,0,10.38-6v-3.56a23.11,23.11,0,0,0-10.43-2.62c-4.89,0-8.11,2.48-8.11,6.26"/><path class="cls-4" d="M559.14,867.45h10.43v5H559.14v19c0,4,2.11,6,5.41,6a12.94,12.94,0,0,0,5.22-1.19l1.58,4.64a15.22,15.22,0,0,1-7.6,2.09c-6.4,0-10.76-4.24-10.76-10.61v-20H547.6v-5h5.59l1.34-10.3h4.61Z"/><rect class="cls-4" x="575.66" y="867.45" width="6.12" height="34.87"/><path class="cls-4" d="M158.07,940.36l-2.58,5.2a26.94,26.94,0,0,0-12.69-3.47c-5.93,0-9.89,2.56-9.89,7.5,0,4.12,2.78,5.86,7.06,7.31l7.73,2.55c7.19,2.44,12.34,5.64,12.34,13.28,0,8.69-6.59,13.77-16.85,13.77a33.88,33.88,0,0,1-18-5.28l2.9-5.15a28.77,28.77,0,0,0,15.11,4.67c6.41,0,10.38-2.85,10.38-7.72,0-4.58-3.36-6.46-7.58-7.79l-7.73-2.49c-7.59-2.43-11.75-6.47-11.75-13.07,0-8.34,6.46-13.34,16.22-13.34a32.71,32.71,0,0,1,15.34,4"/><path class="cls-4" d="M172.92,943.68h-6.79v-6.59h6.79Zm-.33,42.06h-6.15V950.86h6.15Z"/><path class="cls-4" d="M208.24,957.38v-6.52h6.09v33.83c0,10.5-6.94,17.39-17.44,17.39a24.57,24.57,0,0,1-14.45-4.8l2.35-4.8a19.87,19.87,0,0,0,11.85,4.11c7,0,11.6-4.87,11.68-12.18v-5.2a15,15,0,0,1-12.69,7.3c-9.82,0-16.38-7.3-16.38-18.22s6.56-18.2,16.38-18.2a14.78,14.78,0,0,1,12.61,7.29M185.4,968.29c0,7.64,4.42,12.72,11.09,12.72,7.13,0,11.83-5.08,11.83-12.72s-4.7-12.71-11.83-12.71c-6.67,0-11.09,5.07-11.09,12.71"/><path class="cls-4" d="M256.19,968.29c0,10.21-7.84,18.22-17.69,18.22s-17.65-7.93-17.65-18.22,7.81-18.2,17.65-18.2a17.88,17.88,0,0,1,17.69,18.2m-29.32.09c0,7,5.22,12.57,11.63,12.57s11.69-5.58,11.69-12.57S245,955.63,238.5,955.63s-11.63,5.64-11.63,12.75"/><path class="cls-4" d="M280.62,950.23v6.31a15,15,0,0,0-2.7-.27c-5.42,0-9.05,6.4-9.05,15.91v13.56h-6.15V950.86h6.09v8.59c1.19-5.61,5.08-9.36,9.7-9.36a20.84,20.84,0,0,1,2.11.14"/><path class="cls-4" d="M293.11,950.86h10.44v5.07H293.11v19c0,4,2.1,6.08,5.41,6.08a12.87,12.87,0,0,0,5.23-1.2l1.58,4.65a15.35,15.35,0,0,1-7.59,2.1c-6.41,0-10.77-4.24-10.77-10.62v-20h-5.42v-5.07h5.62l1.32-10.3h4.62Z"/><path class="cls-4" d="M337.48,965.17v20.57h-6.2V980c-2.12,3.91-6.93,6.47-11.77,6.47-7.77,0-12.94-4.44-12.94-11s5.29-10.84,13.14-10.84a24.23,24.23,0,0,1,11.49,3v-2.85c0-5.55-3.7-9.23-9.29-9.23a18.43,18.43,0,0,0-10.57,3.6l-2.25-4.5c2.82-2.73,8.26-4.59,13.46-4.59,9,0,14.93,6,14.93,15.08m-24.7,10.14c0,3.54,3.31,6,8.2,6a13,13,0,0,0,10.36-6v-3.56a23,23,0,0,0-10.43-2.64c-4.89,0-8.13,2.52-8.13,6.26"/><polygon class="cls-4" points="391.96 942.64 369.05 942.64 369.05 959.13 389.99 959.13 389.99 964.62 369.05 964.62 369.05 985.74 362.72 985.74 362.72 937.1 391.96 937.1 391.96 942.64"/><path class="cls-4" d="M429.54,968.29c0,10.21-7.85,18.22-17.7,18.22s-17.64-7.93-17.64-18.22,7.8-18.2,17.64-18.2a17.89,17.89,0,0,1,17.7,18.2m-29.3.09c0,7,5.19,12.57,11.6,12.57s11.69-5.58,11.69-12.57-5.21-12.75-11.69-12.75-11.6,5.64-11.6,12.75"/><path class="cls-4" d="M466.45,965.85v19.89h-6.21V966c0-6.26-3.11-10.37-7.78-10.37-6.08,0-10.18,5.09-10.25,12.81v17.3h-6.15V950.86h6.15v6.94a11.82,11.82,0,0,1,11.29-7.71c7.79,0,12.95,6.26,12.95,15.76"/><path class="cls-4" d="M504.89,985.74h-6.15v-7c-1.77,5.24-6.53,7.73-11.28,7.73-7.22,0-12.95-4.59-12.95-15.71V950.86h6.15v19.79c0,7.85,3.88,10.3,7.84,10.3,3.44,0,10.11-2.51,10.24-12.72V950.86h6.15Z"/><polygon class="cls-3" points="137.57 669.15 137.57 700.48 92.51 700.48 92.51 808.46 46.55 808.46 46.55 700.48 1.31 700.48 1.31 669.15 137.57 669.15"/><polygon class="cls-3" points="149.65 669.36 210.04 669.36 242.12 760.19 274.21 669.36 334.42 669.36 334.42 808.45 289.34 808.45 289.34 719.39 259.26 808.45 224.09 808.45 194.35 719.79 194.35 808.45 149.65 808.45 149.65 669.36"/><path class="cls-3" d="M397.5,705.21a8.38,8.38,0,0,0,1.43,4.94c3.08,4.33,15.87,7.47,22.89,9.05,8.67,2.18,17.5,4.16,26.14,6.1a123.29,123.29,0,0,1,16.42,4.94c16.94,7.1,22.34,20.68,22.34,33.29a46.16,46.16,0,0,1-6.66,23.85c-10.65,17.53-32.1,25.24-66.34,25.24-12.81,0-38.23-1.2-53.18-15.77-11-10.63-12.62-23.45-13.34-29.76l44.88-1.39c1.63,9.08,10.1,16,28.12,16,4.68,0,11.35-.6,15.86-3.36,3.08-2,6.32-5.91,6.32-10.63,0-6.5-4.87-9.28-8.48-10.64-5.59-2-34.25-7.5-40.56-9.06a126.75,126.75,0,0,1-14.59-4.35c-4.87-2-25.24-9.84-25.24-35.25a41,41,0,0,1,10.29-27.21C378,665,403.62,663.43,417.67,663.43c15.51,0,30.85,2.57,38.75,5.34,23.82,8.47,26.88,27.78,28.14,35.26l-44.71,2.77c-1.09-4.56-3.25-12.8-22.34-12.8-6,0-20,1-20,11.21"/><polygon class="cls-3" points="502.75 669.36 627.5 669.36 627.5 700.67 548.35 700.67 548.35 727.28 621.01 727.28 621.01 758.42 548.35 758.42 548.35 808.45 502.75 808.45 502.75 669.36"/></g></g></svg>